<svg xmlns="http://www.w3.org/2000/svg" width="685" height="215"><title>flora24.online/images/logo.svg - https://flora24.online/images/logo.svg</title>
 <g>
  <g id="svg_1">
   <g id="svg_2">
    <g id="svg_3">
     <path fill="#eaacc9" d="m214.67698,73.86667a42.71,42.71 0 0 1 -64.75,36.56a44.21,44.21 0 0 1 -14.53,-14.7a28.32,28.32 0 0 0 -31.58,-12.41a27.91,27.91 0 0 1 23.61,-7c0.67,0.11 1.33,0.25 2,0.4a28.76,28.76 0 0 1 4.48,1.51c1,0.46 2,0.95 2.94,1.49l0.08,0a42.83,42.83 0 0 1 12.73,10.95l0,0a28,28 0 1 0 22.31,-44.8l-0.11,0c0.07,-0.83 0.11,-1.68 0.11,-2.54a27.95,27.95 0 0 0 -50,-17.17a42.81,42.81 0 0 0 -7.59,-13.49a42.7,42.7 0 0 1 71.16,20.73a42.7,42.7 0 0 1 29.14,40.47z" class="cls-1" id="svg_4"/>
     <path fill="#f0c6da" d="m141.47698,214.66667a42.68,42.68 0 0 1 -36.55,-64.77a44,44 0 0 1 14.7,-14.53a28.33,28.33 0 0 0 12.4,-31.58a27.81,27.81 0 0 1 7,23.61c-0.11,0.67 -0.25,1.32 -0.4,2a27.75,27.75 0 0 1 -1.51,4.48c-0.46,1 -0.95,2 -1.49,2.94l0,0.08a42.83,42.83 0 0 1 -10.99,12.77l0,0a28,28 0 1 0 44.8,22.31l0,-0.11c0.83,0.07 1.68,0.11 2.54,0.11a28,28 0 0 0 17.17,-50a42.67,42.67 0 0 0 13.56,-7.58a42.7,42.7 0 0 1 -20.73,71.16a42.7,42.7 0 0 1 -40.5,29.11z" class="cls-2" id="svg_5"/>
     <path fill="#c5defc" d="m0.67698,141.46667a42.7,42.7 0 0 1 64.77,-36.56a44,44 0 0 1 14.53,14.76a28.34,28.34 0 0 0 31.58,12.4a27.89,27.89 0 0 1 -23.61,7c-0.67,-0.11 -1.32,-0.25 -2,-0.4a29.12,29.12 0 0 1 -4.48,-1.51c-1,-0.46 -2,-0.95 -2.94,-1.49l-0.08,0a42.71,42.71 0 0 1 -8.52,-6.26a43.86,43.86 0 0 1 -4.26,-4.67l0,0a28,28 0 1 0 -22.31,44.8l0.12,0c-0.08,0.83 -0.12,1.68 -0.12,2.54a28,28 0 0 0 50,17.17a42.78,42.78 0 0 0 7.62,13.42a42.7,42.7 0 0 1 -71.16,-20.73a42.72,42.72 0 0 1 -29.14,-40.47z" class="cls-3" id="svg_6"/>
     <path fill="#afd0fc" d="m73.92698,0.66667a42.7,42.7 0 0 1 36.56,64.77a44.11,44.11 0 0 1 -14.7,14.53a27.49,27.49 0 0 0 -13,19.4a27.78,27.78 0 0 0 0.62,12.18a27.89,27.89 0 0 1 -7,-23.61c0.11,-0.67 0.25,-1.32 0.41,-2a27.72,27.72 0 0 1 1.5,-4.48c0.46,-1 1,-2 1.49,-2.94a0.56,0.56 0 0 1 0.05,-0.08a42.44,42.44 0 0 1 10.87,-12.77l0,0a28,28 0 1 0 -44.8,-22.3l0,0.11c-0.83,-0.07 -1.68,-0.11 -2.54,-0.11a27.95,27.95 0 0 0 -17.17,50a42.81,42.81 0 0 0 -13.56,7.59a42.7,42.7 0 0 1 20.73,-71.16a42.71,42.71 0 0 1 40.54,-29.13z" class="cls-4" id="svg_7"/>
    </g>
    <text x="247.10697" y="146.88664" font-weight="600" font-family="GillSans-SemiBold, Gill Sans" fill="#449980" font-size="132.79px" class="cls-5" id="svg_8">Flora24</text>
   </g>
  </g>
 </g>
</svg>